<svg xmlns="http://www.w3.org/2000/svg" viewBox="0 0 800 450" fill="none">
  <rect width="800" height="450" rx="8" fill="#EEF4FA"/>
  <circle cx="650" cy="70" r="150" fill="#5485A8" opacity="0.16"/>
  <circle cx="126" cy="380" r="130" fill="#FFFFFF" opacity="0.42"/>
  <path d="M80 350 C190 300 260 386 370 330 S570 282 720 335" stroke="#5485A8" stroke-width="18" stroke-linecap="round" opacity="0.18"/>
  <rect x="230" y="246" width="340" height="32" rx="16" fill="#315F7C" opacity="0.88"/>
  <rect x="176" y="215" width="60" height="94" rx="18" fill="#5485A8" opacity="0.9"/>
  <rect x="564" y="215" width="60" height="94" rx="18" fill="#5485A8" opacity="0.9"/>
  <circle cx="402" cy="152" r="42" fill="#E5A35A" opacity="0.95"/>
  <path d="M340 214 C370 180 432 180 463 214 L491 305 C462 332 343 332 313 305Z" fill="#5485A8" opacity="0.86"/>
  <path d="M326 228 L247 258 M478 228 L556 258" stroke="#315F7C" stroke-width="22" stroke-linecap="round" opacity="0.9"/>
  <path d="M355 325 L325 382 M447 325 L486 382" stroke="#315F7C" stroke-width="22" stroke-linecap="round" opacity="0.86"/>
  <rect x="565" y="334" width="148" height="50" rx="25" fill="#FFFFFF" opacity="0.82"/>
  <text x="639" y="368" text-anchor="middle" font-family="system-ui, sans-serif" font-size="30" font-weight="700" fill="#315F7C" opacity="0.92">運動</text>
</svg>
