<svg xmlns="http://www.w3.org/2000/svg" viewBox="0 0 800 450" fill="none">
  <rect width="800" height="450" rx="8" fill="#EEF7EF"/>
  <circle cx="650" cy="70" r="150" fill="#70A765" opacity="0.16"/>
  <circle cx="126" cy="380" r="130" fill="#FFFFFF" opacity="0.42"/>
  <path d="M80 350 C190 300 260 386 370 330 S570 282 720 335" stroke="#70A765" stroke-width="18" stroke-linecap="round" opacity="0.18"/>
  <path d="M407 114 C329 114 275 162 275 226 C275 295 332 338 404 338 C485 338 542 298 542 230 C542 166 489 130 432 150 C385 166 385 225 433 232 C470 237 486 284 443 304 C395 327 327 288 330 224 C333 159 394 132 455 146" stroke="#3F7538" stroke-width="31" stroke-linecap="round" stroke-linejoin="round" opacity="0.88"/>
  <path d="M407 114 C329 114 275 162 275 226 C275 295 332 338 404 338 C485 338 542 298 542 230 C542 166 489 130 432 150" stroke="#97C889" stroke-width="14" stroke-linecap="round" opacity="0.85"/>
  <circle cx="236" cy="150" r="18" fill="#70A765" opacity="0.85"/>
  <circle cx="588" cy="164" r="14" fill="#70A765" opacity="0.75"/>
  <circle cx="582" cy="300" r="20" fill="#B6D58B" opacity="0.9"/>
  <circle cx="220" cy="292" r="13" fill="#B6D58B" opacity="0.9"/>
  <rect x="565" y="334" width="148" height="50" rx="25" fill="#FFFFFF" opacity="0.82"/>
  <text x="639" y="368" text-anchor="middle" font-family="system-ui, sans-serif" font-size="30" font-weight="700" fill="#3F7538" opacity="0.92">腸道</text>
</svg>
