<svg xmlns="http://www.w3.org/2000/svg" viewBox="0 0 800 450" fill="none">
  <rect width="800" height="450" rx="8" fill="#EEF3FA"/>
  <circle cx="650" cy="70" r="150" fill="#5F84AE" opacity="0.16"/>
  <circle cx="126" cy="380" r="130" fill="#FFFFFF" opacity="0.42"/>
  <path d="M80 350 C190 300 260 386 370 330 S570 282 720 335" stroke="#5F84AE" stroke-width="18" stroke-linecap="round" opacity="0.18"/>
  <rect x="285" y="112" width="232" height="260" rx="28" fill="#FFFFFF" opacity="0.9"/>
  <rect x="325" y="155" width="152" height="22" rx="11" fill="#5F84AE" opacity="0.75"/>
  <rect x="325" y="205" width="100" height="14" rx="7" fill="#355D85" opacity="0.45"/>
  <rect x="325" y="236" width="128" height="14" rx="7" fill="#355D85" opacity="0.35"/>
  <path d="M401 277 V339 M370 308 H432" stroke="#5F84AE" stroke-width="18" stroke-linecap="round" opacity="0.85"/>
  <circle cx="230" cy="245" r="36" fill="#5F84AE" opacity="0.85"/>
  <circle cx="576" cy="222" r="43" fill="#85A5C5" opacity="0.85"/>
  <path d="M266 245 C310 226 514 222 533 222" stroke="#355D85" stroke-width="8" stroke-linecap="round" opacity="0.35"/>
  <rect x="565" y="334" width="148" height="50" rx="25" fill="#FFFFFF" opacity="0.82"/>
  <text x="639" y="368" text-anchor="middle" font-family="system-ui, sans-serif" font-size="30" font-weight="700" fill="#355D85" opacity="0.92">公衛</text>
</svg>
