<svg xmlns="http://www.w3.org/2000/svg" viewBox="0 0 800 450" fill="none">
  <rect width="800" height="450" rx="8" fill="#EFF3F7"/>
  <circle cx="650" cy="70" r="150" fill="#607FA6" opacity="0.16"/>
  <circle cx="126" cy="380" r="130" fill="#FFFFFF" opacity="0.42"/>
  <path d="M80 350 C190 300 260 386 370 330 S570 282 720 335" stroke="#607FA6" stroke-width="18" stroke-linecap="round" opacity="0.18"/>
  <rect x="250" y="122" width="250" height="230" rx="26" fill="#FFFFFF" opacity="0.9"/>
  <rect x="286" y="160" width="140" height="18" rx="9" fill="#607FA6" opacity="0.65"/>
  <rect x="286" y="204" width="160" height="12" rx="6" fill="#385C82" opacity="0.35"/>
  <rect x="286" y="236" width="112" height="12" rx="6" fill="#385C82" opacity="0.28"/>
  <circle cx="512" cy="268" r="66" fill="#EFF3F7" stroke="#385C82" stroke-width="18" opacity="0.9"/>
  <path d="M558 314 L624 380" stroke="#385C82" stroke-width="22" stroke-linecap="round" opacity="0.88"/>
  <path d="M320 304 L356 268 L390 292 L438 230" stroke="#6FAE9E" stroke-width="11" stroke-linecap="round" stroke-linejoin="round" opacity="0.88"/>
  <rect x="565" y="334" width="148" height="50" rx="25" fill="#FFFFFF" opacity="0.82"/>
  <text x="639" y="368" text-anchor="middle" font-family="system-ui, sans-serif" font-size="30" font-weight="700" fill="#385C82" opacity="0.92">研究</text>
</svg>
