<svg xmlns="http://www.w3.org/2000/svg" viewBox="0 0 800 450" fill="none">
  <rect width="800" height="450" rx="8" fill="#EEF6F0"/>
  <!-- capsule -->
  <rect x="320" y="170" width="160" height="60" rx="30" fill="#F2C25A" opacity="0.85"/>
  <rect x="320" y="170" width="80" height="60" rx="30" fill="#E8A93A" opacity="0.9"/>
  <line x1="400" y1="172" x2="400" y2="228" stroke="#fff" stroke-width="2" opacity="0.7"/>
  <!-- leaves around -->
  <path d="M250 220 Q260 200 280 210 Q270 230 250 220Z" fill="#6FA678" opacity="0.7"/>
  <path d="M520 220 Q530 200 550 210 Q540 230 520 220Z" fill="#6FA678" opacity="0.7"/>
  <!-- molecular hint -->
  <circle cx="200" cy="160" r="6" fill="#3C7A8C" opacity="0.6"/>
  <circle cx="230" cy="140" r="6" fill="#3C7A8C" opacity="0.6"/>
  <circle cx="260" cy="160" r="6" fill="#3C7A8C" opacity="0.6"/>
  <line x1="200" y1="160" x2="230" y2="140" stroke="#3C7A8C" stroke-width="2" opacity="0.5"/>
  <line x1="230" y1="140" x2="260" y2="160" stroke="#3C7A8C" stroke-width="2" opacity="0.5"/>
  <circle cx="600" cy="300" r="6" fill="#3C7A8C" opacity="0.6"/>
  <circle cx="630" cy="320" r="6" fill="#3C7A8C" opacity="0.6"/>
  <circle cx="660" cy="300" r="6" fill="#3C7A8C" opacity="0.6"/>
  <line x1="600" y1="300" x2="630" y2="320" stroke="#3C7A8C" stroke-width="2" opacity="0.5"/>
  <line x1="630" y1="320" x2="660" y2="300" stroke="#3C7A8C" stroke-width="2" opacity="0.5"/>
  <text x="400" y="320" text-anchor="middle" font-family="sans-serif" font-size="18" fill="#3C7A8C" opacity="0.8">VITAMIN</text>
</svg>
