<svg xmlns="http://www.w3.org/2000/svg" viewBox="0 0 800 450" fill="none">
  <rect width="800" height="450" rx="8" fill="#EEF8F0"/>
  <circle cx="650" cy="70" r="150" fill="#F0B64A" opacity="0.16"/>
  <circle cx="126" cy="380" r="130" fill="#FFFFFF" opacity="0.42"/>
  <path d="M80 350 C190 300 260 386 370 330 S570 282 720 335" stroke="#F0B64A" stroke-width="18" stroke-linecap="round" opacity="0.18"/>
  <rect x="230" y="156" width="320" height="112" rx="56" fill="#F0B64A" opacity="0.95" transform="rotate(-16 390 212)"/>
  <path d="M234 257 C217 206 247 157 299 143 L390 118 L418 226 L327 250 C288 261 257 261 234 257Z" fill="#E68E4C" opacity="0.9"/>
  <path d="M388 118 L418 226" stroke="#FFFFFF" stroke-width="9" opacity="0.85"/>
  <circle cx="573" cy="252" r="52" fill="#FFFFFF" opacity="0.86"/>
  <path d="M548 252 H598 M573 227 V277" stroke="#3D7C70" stroke-width="16" stroke-linecap="round" opacity="0.88"/>
  <circle cx="274" cy="329" r="26" fill="#8FCF9C" opacity="0.9"/>
  <circle cx="332" cy="342" r="18" fill="#F0B64A" opacity="0.86"/>
  <rect x="565" y="334" width="148" height="50" rx="25" fill="#FFFFFF" opacity="0.82"/>
  <text x="639" y="368" text-anchor="middle" font-family="system-ui, sans-serif" font-size="30" font-weight="700" fill="#3D7C70" opacity="0.92">維生素</text>
</svg>
