<svg viewBox="0 0 320 180" xmlns="http://www.w3.org/2000/svg" role="img" aria-hidden="true">
  <defs>
    <linearGradient id="bg" x1="0" y1="0" x2="1" y2="1">
      <stop offset="0" stop-color="oklch(0.975 0.015 195)"/>
      <stop offset="1" stop-color="oklch(0.90 0.055 195)"/>
    </linearGradient>
  </defs>
  <rect width="320" height="180" fill="url(#bg)"/>
  <circle cx="298" cy="22" r="66" fill="oklch(0.45 0.09 195)" opacity="0.06"/>
  <path d="M320 66 A66 66 0 0 0 254 0" fill="none" stroke="oklch(0.45 0.09 195)" stroke-width="5" opacity="0.14"/>
  <circle cx="26" cy="168" r="44" fill="none" stroke="oklch(0.45 0.09 195)" stroke-width="6" opacity="0.08"/>
  <g transform="translate(124 52) scale(3)" fill="none" stroke="oklch(0.45 0.09 195)" stroke-width="2" stroke-linecap="round" stroke-linejoin="round" opacity="0.9">
    <path d="M14 2H6a2 2 0 0 0-2 2v16a2 2 0 0 0 2 2h12a2 2 0 0 0 2-2V8z"/>
    <polyline points="14 2 14 8 20 8"/>
    <line x1="16" y1="13" x2="8" y2="13"/>
    <line x1="16" y1="17" x2="8" y2="17"/>
    <polyline points="10 9 9 9 8 9"/>
  </g>
</svg>
