<svg viewBox="0 0 320 180" xmlns="http://www.w3.org/2000/svg" role="img" aria-hidden="true">
  <defs>
    <linearGradient id="bg" x1="0" y1="0" x2="1" y2="1">
      <stop offset="0" stop-color="oklch(0.975 0.015 140)"/>
      <stop offset="1" stop-color="oklch(0.90 0.055 140)"/>
    </linearGradient>
  </defs>
  <rect width="320" height="180" fill="url(#bg)"/>
  <circle cx="298" cy="22" r="66" fill="oklch(0.48 0.10 140)" opacity="0.06"/>
  <path d="M320 66 A66 66 0 0 0 254 0" fill="none" stroke="oklch(0.48 0.10 140)" stroke-width="5" opacity="0.14"/>
  <circle cx="26" cy="168" r="44" fill="none" stroke="oklch(0.48 0.10 140)" stroke-width="6" opacity="0.08"/>
  <g transform="translate(124 52) scale(3)" fill="none" stroke="oklch(0.48 0.10 140)" stroke-width="2" stroke-linecap="round" stroke-linejoin="round" opacity="0.9">
    <path d="M10 2v7.527a2 2 0 0 1-.211.896L4.72 20.55a1 1 0 0 0 .9 1.45h12.76a1 1 0 0 0 .9-1.45l-5.069-10.127A2 2 0 0 1 14 9.527V2"/>
    <path d="M8.5 2h7"/>
    <line x1="7" y1="15" x2="17" y2="15"/>
  </g>
</svg>
