<svg xmlns="http://www.w3.org/2000/svg" viewBox="0 0 1600 900" role="img" aria-label="蝦紅素"><rect width="1600" height="900" fill="#EEF7FF"/><ellipse cx="800" cy="482" rx="420" ry="250" fill="#1F6F8B" opacity="0.07"/><g transform="translate(800,450)">
    <g transform="translate(20,10) rotate(10)">
      <path d="M40,-170 A175,175 0 1 1 -120,120 L-64,66 A100,100 0 1 0 30,-96 Z" fill="#FB8C61"/>
      <g stroke="#E86A3C" stroke-width="12" stroke-linecap="round">
        <line x1="120" y1="-40" x2="70" y2="-4"/><line x1="140" y1="20" x2="86" y2="34"/><line x1="120" y1="78" x2="74" y2="66"/>
      </g>
      <path d="M40,-170 l70,-46 l-6,52 l40,26 l-56,20 z" fill="#F98A6B"/>
      <g stroke="#E86A3C" stroke-width="9" stroke-linecap="round">
        <line x1="-150" y1="120" x2="-190" y2="170"/><line x1="-120" y1="150" x2="-150" y2="200"/>
      </g>
      <circle cx="-138" cy="112" r="12" fill="#3A2417"/>
    </g></g></svg>