<svg xmlns="http://www.w3.org/2000/svg" viewBox="0 0 1600 900" role="img" aria-label="輔酵素 Q10"><rect width="1600" height="900" fill="#FFF7E8"/><ellipse cx="800" cy="482" rx="420" ry="250" fill="#A66300" opacity="0.07"/><g transform="translate(800,450)"><g transform="translate(-58,0) rotate(-16)"><path d="M0,-135 C66,-135 66,-46 16,-24 C66,-2 66,135 0,135 C-66,135 -66,-2 -16,-24 C-66,-46 -66,-135 0,-135 Z" fill="#E3B778" stroke="#C79A55" stroke-width="6"/><circle cx="0" cy="-72" r="10" fill="#C79A55"/><circle cx="0" cy="72" r="10" fill="#C79A55"/></g><g transform="translate(72,10) rotate(22)"><path d="M0,-135 C66,-135 66,-46 16,-24 C66,-2 66,135 0,135 C-66,135 -66,-2 -16,-24 C-66,-46 -66,-135 0,-135 Z" fill="#E3B778" stroke="#C79A55" stroke-width="6"/><circle cx="0" cy="-72" r="10" fill="#C79A55"/><circle cx="0" cy="72" r="10" fill="#C79A55"/></g></g></svg>