<svg xmlns="http://www.w3.org/2000/svg" viewBox="0 0 1600 900" role="img" aria-label="膠原蛋白"><rect width="1600" height="900" fill="#FFF0F7"/><ellipse cx="800" cy="482" rx="420" ry="250" fill="#A23B72" opacity="0.07"/><g transform="translate(800,450)">
    <g transform="translate(0,10)">
      <g stroke="#E7B9D0" stroke-width="12" fill="none" stroke-linecap="round" opacity="0.9">
        <path d="M-80,-70 q-28,-40 0,-80 q28,40 0,80"/><path d="M0,-90 q-28,-40 0,-80 q28,40 0,80"/><path d="M80,-70 q-28,-40 0,-80 q28,40 0,80"/>
      </g>
      <path d="M-200,0 A200,150 0 0 0 200,0 Z" fill="#F4E6D6" stroke="#DDC3A6" stroke-width="6"/>
      <ellipse cx="0" cy="0" rx="200" ry="46" fill="#E9B77A"/>
      <ellipse cx="0" cy="0" rx="166" ry="34" fill="#E0A55F"/>
      <path d="M-140,160 Q0,190 140,160" fill="none" stroke="#DDC3A6" stroke-width="10" stroke-linecap="round"/>
    </g></g></svg>