<svg xmlns="http://www.w3.org/2000/svg" viewBox="0 0 1600 900" role="img" aria-label="膳食纖維"><rect width="1600" height="900" fill="#F7F8EA"/><ellipse cx="800" cy="482" rx="420" ry="250" fill="#6A7D1A" opacity="0.07"/><g transform="translate(800,450)"><line x1="0" y1="180" x2="0" y2="-60" stroke="#B8860B" stroke-width="11" stroke-linecap="round"/><ellipse cx="-34" cy="-120" rx="26" ry="15" fill="#D9A441" transform="rotate(-32 -34 -120)"/><ellipse cx="34" cy="-120" rx="26" ry="15" fill="#E0AE4C" transform="rotate(32 34 -120)"/><ellipse cx="-34" cy="-80" rx="26" ry="15" fill="#D9A441" transform="rotate(-32 -34 -80)"/><ellipse cx="34" cy="-80" rx="26" ry="15" fill="#E0AE4C" transform="rotate(32 34 -80)"/><ellipse cx="-34" cy="-40" rx="26" ry="15" fill="#D9A441" transform="rotate(-32 -34 -40)"/><ellipse cx="34" cy="-40" rx="26" ry="15" fill="#E0AE4C" transform="rotate(32 34 -40)"/><ellipse cx="-34" cy="0" rx="26" ry="15" fill="#D9A441" transform="rotate(-32 -34 0)"/><ellipse cx="34" cy="0" rx="26" ry="15" fill="#E0AE4C" transform="rotate(32 34 0)"/><ellipse cx="-34" cy="40" rx="26" ry="15" fill="#D9A441" transform="rotate(-32 -34 40)"/><ellipse cx="34" cy="40" rx="26" ry="15" fill="#E0AE4C" transform="rotate(32 34 40)"/><ellipse cx="-34" cy="80" rx="26" ry="15" fill="#D9A441" transform="rotate(-32 -34 80)"/><ellipse cx="34" cy="80" rx="26" ry="15" fill="#E0AE4C" transform="rotate(32 34 80)"/><ellipse cx="-34" cy="120" rx="26" ry="15" fill="#D9A441" transform="rotate(-32 -34 120)"/><ellipse cx="34" cy="120" rx="26" ry="15" fill="#E0AE4C" transform="rotate(32 34 120)"/><ellipse cx="0" cy="-140" rx="24" ry="30" fill="#C9962E"/></g></svg>