<svg xmlns="http://www.w3.org/2000/svg" viewBox="0 0 1600 900" role="img" aria-label="葉酸"><rect width="1600" height="900" fill="#EEF7FF"/><ellipse cx="800" cy="482" rx="420" ry="250" fill="#1F6F8B" opacity="0.07"/><g transform="translate(800,450)"><g transform="translate(-70,10) rotate(-26)"><path d="M0,120 C-80,60 -80,-70 0,-130 C80,-70 80,60 0,120 Z" fill="#4E9A3E"/><path d="M0,110 L0,-118" stroke="#2E7D32" stroke-width="7"/><g stroke="#2E7D32" stroke-width="5"><path d="M0,-60 L44,-90" fill="none"/><path d="M0,-10 L52,-34" fill="none"/><path d="M0,40 L44,24" fill="none"/><path d="M0,-60 L-44,-90" fill="none"/><path d="M0,-10 L-52,-34" fill="none"/><path d="M0,40 L-44,24" fill="none"/></g></g><g transform="translate(74,-6) rotate(22)"><path d="M0,120 C-80,60 -80,-70 0,-130 C80,-70 80,60 0,120 Z" fill="#57AA46"/><path d="M0,110 L0,-118" stroke="#2E7D32" stroke-width="7"/><g stroke="#2E7D32" stroke-width="5"><path d="M0,-60 L44,-90" fill="none"/><path d="M0,-10 L52,-34" fill="none"/><path d="M0,40 L44,24" fill="none"/><path d="M0,-60 L-44,-90" fill="none"/><path d="M0,-10 L-52,-34" fill="none"/><path d="M0,40 L-44,24" fill="none"/></g></g><g transform="translate(4,40) rotate(2)"><path d="M0,120 C-80,60 -80,-70 0,-130 C80,-70 80,60 0,120 Z" fill="#3E8B33"/><path d="M0,110 L0,-118" stroke="#2E7D32" stroke-width="7"/><g stroke="#2E7D32" stroke-width="5"><path d="M0,-60 L44,-90" fill="none"/><path d="M0,-10 L52,-34" fill="none"/><path d="M0,40 L44,24" fill="none"/><path d="M0,-60 L-44,-90" fill="none"/><path d="M0,-10 L-52,-34" fill="none"/><path d="M0,40 L-44,24" fill="none"/></g></g></g></svg>