<svg xmlns="http://www.w3.org/2000/svg" viewBox="0 0 1600 900" role="img" aria-label="葡萄糖胺"><rect width="1600" height="900" fill="#EEF7FF"/><ellipse cx="800" cy="482" rx="420" ry="250" fill="#1F6F8B" opacity="0.07"/><g transform="translate(800,450)"><g transform="translate(0,-6)"><path d="M0,120 L-168,-30 A168,150 0 0 1 168,-30 Z" fill="#EBD6B8" stroke="#D3B884" stroke-width="6"/><line x1="0" y1="120" x2="-168.0" y2="0.0" stroke="#D8BE94" stroke-width="8"/><line x1="0" y1="120" x2="-155.2" y2="-64.3" stroke="#D8BE94" stroke-width="8"/><line x1="0" y1="120" x2="-118.8" y2="-118.8" stroke="#D8BE94" stroke-width="8"/><line x1="0" y1="120" x2="-64.3" y2="-155.2" stroke="#D8BE94" stroke-width="8"/><line x1="0" y1="120" x2="-0.0" y2="-168.0" stroke="#D8BE94" stroke-width="8"/><line x1="0" y1="120" x2="64.3" y2="-155.2" stroke="#D8BE94" stroke-width="8"/><line x1="0" y1="120" x2="118.8" y2="-118.8" stroke="#D8BE94" stroke-width="8"/><line x1="0" y1="120" x2="155.2" y2="-64.3" stroke="#D8BE94" stroke-width="8"/><line x1="0" y1="120" x2="168.0" y2="-0.0" stroke="#D8BE94" stroke-width="8"/><path d="M-40,120 q-30,26 -12,52 M40,120 q30,26 12,52" stroke="#D3B884" stroke-width="10" fill="none" stroke-linecap="round"/></g></g></svg>