<svg xmlns="http://www.w3.org/2000/svg" viewBox="0 0 1600 900" role="img" aria-label="葉黃素"><rect width="1600" height="900" fill="#ECFDF5"/><ellipse cx="800" cy="482" rx="420" ry="250" fill="#047857" opacity="0.07"/><g transform="translate(800,450)">
    <g>
      <path d="M-96,150 C-150,60 -150,-70 -70,-120 C-30,-40 -30,80 -60,150 Z" fill="#4E9A3E"/>
      <path d="M96,150 C150,60 150,-70 70,-120 C30,-40 30,80 60,150 Z" fill="#57AA46"/>
      <rect x="-72" y="-160" width="144" height="310" rx="70" fill="#F5C518"/>
      <g fill="#E0A800">
        <circle cx="-42" cy="-120" r="13"/><circle cx="-14" cy="-120" r="13"/><circle cx="14" cy="-120" r="13"/><circle cx="42" cy="-120" r="13"/><circle cx="-42" cy="-68" r="13"/><circle cx="-14" cy="-68" r="13"/><circle cx="14" cy="-68" r="13"/><circle cx="42" cy="-68" r="13"/><circle cx="-42" cy="-16" r="13"/><circle cx="-14" cy="-16" r="13"/><circle cx="14" cy="-16" r="13"/><circle cx="42" cy="-16" r="13"/><circle cx="-42" cy="36" r="13"/><circle cx="-14" cy="36" r="13"/><circle cx="14" cy="36" r="13"/><circle cx="42" cy="36" r="13"/><circle cx="-42" cy="88" r="13"/><circle cx="-14" cy="88" r="13"/><circle cx="14" cy="88" r="13"/><circle cx="42" cy="88" r="13"/><circle cx="-42" cy="140" r="13"/><circle cx="-14" cy="140" r="13"/><circle cx="14" cy="140" r="13"/><circle cx="42" cy="140" r="13"/>
      </g>
    </g></g></svg>