<svg xmlns="http://www.w3.org/2000/svg" viewBox="0 0 1600 900" role="img" aria-label="水飛薊素"><rect width="1600" height="900" fill="#EEF7FF"/><ellipse cx="800" cy="482" rx="420" ry="250" fill="#1F6F8B" opacity="0.07"/><g transform="translate(800,450)"><g transform="translate(0,20)"><line x1="0" y1="-40" x2="-112.2" y2="-76.5" stroke="#8A46C0" stroke-width="9" stroke-linecap="round"/><line x1="0" y1="-40" x2="-106.4" y2="-90.9" stroke="#8A46C0" stroke-width="9" stroke-linecap="round"/><line x1="0" y1="-40" x2="-98.8" y2="-104.5" stroke="#8A46C0" stroke-width="9" stroke-linecap="round"/><line x1="0" y1="-40" x2="-89.4" y2="-117.0" stroke="#8A46C0" stroke-width="9" stroke-linecap="round"/><line x1="0" y1="-40" x2="-78.5" y2="-128.1" stroke="#8A46C0" stroke-width="9" stroke-linecap="round"/><line x1="0" y1="-40" x2="-66.2" y2="-137.7" stroke="#8A46C0" stroke-width="9" stroke-linecap="round"/><line x1="0" y1="-40" x2="-52.7" y2="-145.6" stroke="#8A46C0" stroke-width="9" stroke-linecap="round"/><line x1="0" y1="-40" x2="-38.3" y2="-151.6" stroke="#8A46C0" stroke-width="9" stroke-linecap="round"/><line x1="0" y1="-40" x2="-23.3" y2="-155.7" stroke="#8A46C0" stroke-width="9" stroke-linecap="round"/><line x1="0" y1="-40" x2="-7.8" y2="-157.7" stroke="#8A46C0" stroke-width="9" stroke-linecap="round"/><line x1="0" y1="-40" x2="7.8" y2="-157.7" stroke="#8A46C0" stroke-width="9" stroke-linecap="round"/><line x1="0" y1="-40" x2="23.3" y2="-155.7" stroke="#8A46C0" stroke-width="9" stroke-linecap="round"/><line x1="0" y1="-40" x2="38.3" y2="-151.6" stroke="#8A46C0" stroke-width="9" stroke-linecap="round"/><line x1="0" y1="-40" x2="52.7" y2="-145.6" stroke="#8A46C0" stroke-width="9" stroke-linecap="round"/><line x1="0" y1="-40" x2="66.2" y2="-137.7" stroke="#8A46C0" stroke-width="9" stroke-linecap="round"/><line x1="0" y1="-40" x2="78.5" y2="-128.1" stroke="#8A46C0" stroke-width="9" stroke-linecap="round"/><line x1="0" y1="-40" x2="89.4" y2="-117.0" stroke="#8A46C0" stroke-width="9" stroke-linecap="round"/><line x1="0" y1="-40" x2="98.8" y2="-104.5" stroke="#8A46C0" stroke-width="9" stroke-linecap="round"/><line x1="0" y1="-40" x2="106.4" y2="-90.9" stroke="#8A46C0" stroke-width="9" stroke-linecap="round"/><line x1="0" y1="-40" x2="112.2" y2="-76.5" stroke="#8A46C0" stroke-width="9" stroke-linecap="round"/><path d="M-56,-40 C-70,60 -30,130 0,150 C30,130 70,60 56,-40 C30,-10 -30,-10 -56,-40 Z" fill="#4E7A34"/><g stroke="#3C6128" stroke-width="5"><path d="M-30,0 l-20,40 M30,0 l20,40 M0,10 l0,50 M-14,60 l-16,34 M14,60 l16,34"/></g></g></g></svg>