<svg xmlns="http://www.w3.org/2000/svg" viewBox="0 0 1600 900" role="img" aria-label="OPC"><rect width="1600" height="900" fill="#F5EEFF"/><ellipse cx="800" cy="482" rx="420" ry="250" fill="#6E3AB2" opacity="0.07"/><g transform="translate(800,450)"><g transform="translate(0,-10)"><circle cx="-64" cy="-40" r="40" fill="#7E3FB0"/><circle cx="-76" cy="-52" r="12" fill="#A972DC" opacity="0.7"/><circle cx="0" cy="-56" r="40" fill="#7E3FB0"/><circle cx="-12" cy="-68" r="12" fill="#A972DC" opacity="0.7"/><circle cx="64" cy="-40" r="40" fill="#7E3FB0"/><circle cx="52" cy="-52" r="12" fill="#A972DC" opacity="0.7"/><circle cx="-96" cy="20" r="40" fill="#7E3FB0"/><circle cx="-108" cy="8" r="12" fill="#A972DC" opacity="0.7"/><circle cx="-32" cy="8" r="40" fill="#7E3FB0"/><circle cx="-44" cy="-4" r="12" fill="#A972DC" opacity="0.7"/><circle cx="32" cy="8" r="40" fill="#7E3FB0"/><circle cx="20" cy="-4" r="12" fill="#A972DC" opacity="0.7"/><circle cx="96" cy="20" r="40" fill="#7E3FB0"/><circle cx="84" cy="8" r="12" fill="#A972DC" opacity="0.7"/><circle cx="-60" cy="72" r="40" fill="#7E3FB0"/><circle cx="-72" cy="60" r="12" fill="#A972DC" opacity="0.7"/><circle cx="4" cy="86" r="40" fill="#7E3FB0"/><circle cx="-8" cy="74" r="12" fill="#A972DC" opacity="0.7"/><circle cx="68" cy="72" r="40" fill="#7E3FB0"/><circle cx="56" cy="60" r="12" fill="#A972DC" opacity="0.7"/><circle cx="-24" cy="132" r="40" fill="#7E3FB0"/><circle cx="-36" cy="120" r="12" fill="#A972DC" opacity="0.7"/><circle cx="40" cy="132" r="40" fill="#7E3FB0"/><circle cx="28" cy="120" r="12" fill="#A972DC" opacity="0.7"/><path d="M-10,-96 q70,-40 128,-6 q-58,30 -128,6z" fill="#4E9A3E"/><line x1="0" y1="-92" x2="0" y2="-58" stroke="#6E5231" stroke-width="10" stroke-linecap="round"/></g></g></svg>