<svg xmlns="http://www.w3.org/2000/svg" viewBox="0 0 1600 900" role="img" aria-label="南瓜籽"><rect width="1600" height="900" fill="#F2FFE8"/><ellipse cx="800" cy="482" rx="420" ry="250" fill="#4D8A1F" opacity="0.07"/><g transform="translate(800,450)">
    <g transform="translate(0,-6)">
      <g fill="#E8862B">
        <ellipse cx="0" cy="0" rx="130" ry="120"/><ellipse cx="-64" cy="0" rx="70" ry="118"/><ellipse cx="64" cy="0" rx="70" ry="118"/>
      </g>
      <g stroke="#C96E18" stroke-width="7" fill="none"><path d="M-64,-96 C-40,0 -40,60 -64,96"/><path d="M64,-96 C40,0 40,60 64,96"/><path d="M0,-118 L0,118"/></g>
      <rect x="-16" y="-150" width="32" height="46" rx="10" fill="#5F8A3A"/>
    </g>
    <g fill="#A9C46B" stroke="#7FA04A" stroke-width="4">
      <path d="M-150,120 q-24,-40 0,-78 q24,38 0,78 z"/><path d="M150,110 q24,-40 0,-78 q-24,38 0,78 z"/>
    </g></g></svg>