<svg xmlns="http://www.w3.org/2000/svg" viewBox="0 0 1600 900" role="img" aria-label="薑黃"><rect width="1600" height="900" fill="#FFF7ED"/><ellipse cx="800" cy="482" rx="420" ry="250" fill="#C2410C" opacity="0.07"/><g transform="translate(800,450)"><g transform="translate(-58,-30) rotate(-22)"><path d="M0,-90 C40,-90 44,-40 40,0 C36,50 40,90 0,96 C-40,90 -36,50 -40,0 C-44,-40 -40,-90 0,-90 Z" fill="#E08A2B"/><g stroke="#B85C10" stroke-width="5"><line x1="-36" y1="-40" x2="36" y2="-40"/><line x1="-40" y1="10" x2="40" y2="10"/></g></g><g transform="translate(30,-56) rotate(14)"><path d="M0,-90 C40,-90 44,-40 40,0 C36,50 40,90 0,96 C-40,90 -36,50 -40,0 C-44,-40 -40,-90 0,-90 Z" fill="#E8962F"/><g stroke="#B85C10" stroke-width="5"><line x1="-36" y1="-40" x2="36" y2="-40"/><line x1="-40" y1="10" x2="40" y2="10"/></g></g><g transform="translate(70,30) rotate(34)"><path d="M0,-90 C40,-90 44,-40 40,0 C36,50 40,90 0,96 C-40,90 -36,50 -40,0 C-44,-40 -40,-90 0,-90 Z" fill="#D97C1E"/><g stroke="#B85C10" stroke-width="5"><line x1="-36" y1="-40" x2="36" y2="-40"/><line x1="-40" y1="10" x2="40" y2="10"/></g></g><g transform="translate(-40,120)"><path d="M-90,40 Q0,-30 90,40 Z" fill="#E9A64A"/><g fill="#D97C1E"><circle cx="-70" cy="18" r="6"/><circle cx="-53" cy="22" r="6"/><circle cx="-36" cy="26" r="6"/><circle cx="-19" cy="30" r="6"/><circle cx="-2" cy="34" r="6"/><circle cx="15" cy="30" r="6"/><circle cx="32" cy="26" r="6"/><circle cx="49" cy="22" r="6"/><circle cx="66" cy="18" r="6"/></g></g></g></svg>