<svg xmlns="http://www.w3.org/2000/svg" viewBox="0 0 1600 900" role="img" aria-label="維生素 E"><rect width="1600" height="900" fill="#F7F3E9"/><ellipse cx="800" cy="482" rx="420" ry="250" fill="#8A6A0A" opacity="0.07"/><g transform="translate(800,450)"><g transform="translate(-72,-6) rotate(-24)"><path d="M0,-100 C58,-64 58,64 0,100 C-58,64 -58,-64 0,-100 Z" fill="#D9A566"/><path d="M0,-88 C40,-56 40,56 0,88" fill="none" stroke="#B9884A" stroke-width="6"/></g><g transform="translate(78,-24) rotate(20)"><path d="M0,-100 C58,-64 58,64 0,100 C-58,64 -58,-64 0,-100 Z" fill="#D9A566"/><path d="M0,-88 C40,-56 40,56 0,88" fill="none" stroke="#B9884A" stroke-width="6"/></g><g transform="translate(6,84) rotate(4)"><path d="M0,-100 C58,-64 58,64 0,100 C-58,64 -58,-64 0,-100 Z" fill="#D9A566"/><path d="M0,-88 C40,-56 40,56 0,88" fill="none" stroke="#B9884A" stroke-width="6"/></g></g></svg>