<svg xmlns="http://www.w3.org/2000/svg" viewBox="0 0 1600 900" role="img" aria-label="維生素 A"><rect width="1600" height="900" fill="#FFF1E8"/><ellipse cx="800" cy="482" rx="420" ry="250" fill="#B45309" opacity="0.07"/><g transform="translate(800,450)">
    <g transform="rotate(-8)">
      <path d="M-86,-96 Q0,-140 86,-96 L18,168 Q0,190 -18,168 Z" fill="#F97316"/>
      <g stroke="#E85D0B" stroke-width="9" stroke-linecap="round">
        <line x1="-46" y1="-40" x2="-16" y2="-34"/><line x1="16" y1="10" x2="46" y2="16"/><line x1="-30" y1="70" x2="-4" y2="76"/>
      </g>
      <path d="M-4,-108 C-30,-200 -78,-206 -92,-160 C-58,-150 -30,-150 -6,-108 Z" fill="#4E9A3E"/>
      <path d="M2,-112 C2,-210 40,-224 66,-186 C40,-168 22,-150 8,-110 Z" fill="#57AA46"/>
      <path d="M-2,-110 C24,-196 6,-214 -30,-206 C-18,-172 -14,-150 -4,-110 Z" fill="#4A9439"/>
    </g></g></svg>