<svg xmlns="http://www.w3.org/2000/svg" viewBox="0 0 1600 900" role="img" aria-label="維生素 K"><rect width="1600" height="900" fill="#EEFBEF"/><ellipse cx="800" cy="482" rx="420" ry="250" fill="#1E7A3E" opacity="0.07"/><g transform="translate(800,450)"><rect x="-30" y="20" width="60" height="150" rx="28" fill="#9CBE72"/><circle cx="0" cy="-64" r="66" fill="#3E9142"/><circle cx="-72" cy="-30" r="58" fill="#3E9142"/><circle cx="72" cy="-30" r="58" fill="#3E9142"/><circle cx="-40" cy="-90" r="48" fill="#3E9142"/><circle cx="40" cy="-90" r="48" fill="#3E9142"/><circle cx="-100" cy="20" r="46" fill="#3E9142"/><circle cx="100" cy="20" r="46" fill="#3E9142"/><circle cx="0" cy="-8" r="60" fill="#3E9142"/><circle cx="-23.099999999999998" cy="-87.1" r="26.400000000000002" fill="#5CB85C" opacity="0.6"/><circle cx="-92.3" cy="-50.3" r="23.200000000000003" fill="#5CB85C" opacity="0.6"/><circle cx="51.7" cy="-50.3" r="23.200000000000003" fill="#5CB85C" opacity="0.6"/><circle cx="-56.8" cy="-106.8" r="19.200000000000003" fill="#5CB85C" opacity="0.6"/><circle cx="23.200000000000003" cy="-106.8" r="19.200000000000003" fill="#5CB85C" opacity="0.6"/><circle cx="-116.1" cy="3.900000000000002" r="18.400000000000002" fill="#5CB85C" opacity="0.6"/><circle cx="83.9" cy="3.900000000000002" r="18.400000000000002" fill="#5CB85C" opacity="0.6"/><circle cx="-21" cy="-29" r="24" fill="#5CB85C" opacity="0.6"/></g></svg>