<svg xmlns="http://www.w3.org/2000/svg" viewBox="0 0 800 450" fill="none">
  <rect width="800" height="450" rx="8" fill="#FFF5E8"/>
  <circle cx="650" cy="70" r="150" fill="#E0964F" opacity="0.16"/>
  <circle cx="126" cy="380" r="130" fill="#FFFFFF" opacity="0.42"/>
  <path d="M80 350 C190 300 260 386 370 330 S570 282 720 335" stroke="#E0964F" stroke-width="18" stroke-linecap="round" opacity="0.18"/>
  <rect x="238" y="118" width="224" height="246" rx="30" fill="#FFFFFF" opacity="0.92"/><rect x="276" y="158" width="149" height="46" rx="12" fill="#E0964F" opacity="0.88"/><path d="M282 240 H410 M282 271 H388 M282 302 H420" stroke="#9B5A27" stroke-width="13" stroke-linecap="round" opacity="0.38"/><circle cx="524" cy="260" r="65" fill="#FFF5E8" stroke="#9B5A27" stroke-width="17" opacity="0.92"/><path d="M570 306 L632 368" stroke="#9B5A27" stroke-width="20" stroke-linecap="round" opacity="0.88"/><path d="M496 260 H552 M524 232 V288" stroke="#E0964F" stroke-width="11" stroke-linecap="round" opacity="0.88"/>
  <rect x="565" y="334" width="148" height="50" rx="25" fill="#FFFFFF" opacity="0.82"/>
  <text x="639" y="368" text-anchor="middle" font-family="system-ui, sans-serif" font-size="30" font-weight="700" fill="#9B5A27" opacity="0.92">食品標示</text>
</svg>
