<svg xmlns="http://www.w3.org/2000/svg" viewBox="0 0 800 450" fill="none">
  <rect width="800" height="450" rx="8" fill="#EEF5FA"/>
  <circle cx="650" cy="70" r="150" fill="#6E95C2" opacity="0.16"/>
  <circle cx="126" cy="380" r="130" fill="#FFFFFF" opacity="0.42"/>
  <path d="M80 350 C190 300 260 386 370 330 S570 282 720 335" stroke="#6E95C2" stroke-width="18" stroke-linecap="round" opacity="0.18"/>
  <path d="M303 139 C245 180 248 297 337 319 C411 337 474 293 452 237 C435 194 373 216 389 257" stroke="#5A9A68" stroke-width="26" stroke-linecap="round" opacity="0.88"/><path d="M512 112 C470 156 472 220 513 264 C552 307 615 311 660 281 C637 348 563 382 494 354 C416 322 384 228 425 158 C445 124 477 105 512 112Z" fill="#6E95C2" opacity="0.88"/><path d="M230 352 C294 326 365 379 431 348 C493 319 552 333 610 353" stroke="#3B648F" stroke-width="12" stroke-linecap="round" opacity="0.5"/><circle cx="244" cy="146" r="14" fill="#9AC989" opacity="0.9"/><circle cx="352" cy="105" r="10" fill="#9AC989" opacity="0.85"/>
  <rect x="565" y="334" width="148" height="50" rx="25" fill="#FFFFFF" opacity="0.82"/>
  <text x="639" y="368" text-anchor="middle" font-family="system-ui, sans-serif" font-size="30" font-weight="700" fill="#3B648F" opacity="0.92">腸眠</text>
</svg>
