<svg xmlns="http://www.w3.org/2000/svg" viewBox="0 0 800 450" fill="none">
  <rect width="800" height="450" rx="8" fill="#EEF6F7"/>
  <circle cx="650" cy="70" r="150" fill="#5AA0A8" opacity="0.16"/>
  <circle cx="126" cy="380" r="130" fill="#FFFFFF" opacity="0.42"/>
  <path d="M80 350 C190 300 260 386 370 330 S570 282 720 335" stroke="#5AA0A8" stroke-width="18" stroke-linecap="round" opacity="0.18"/>
  <circle cx="425" cy="224" r="86" fill="#5AA0A8" opacity="0.82"/><g stroke="#2F727B" stroke-width="12" stroke-linecap="round" opacity="0.7"><path d="M425 116 V78"/><path d="M425 370 V332"/><path d="M317 224 H278"/><path d="M572 224 H533"/><path d="M349 148 L321 120"/><path d="M501 300 L529 328"/><path d="M502 148 L531 119"/><path d="M349 300 L319 330"/></g><circle cx="393" cy="203" r="15" fill="#FFFFFF" opacity="0.88"/><circle cx="454" cy="246" r="18" fill="#FFFFFF" opacity="0.78"/><circle cx="458" cy="180" r="10" fill="#FFFFFF" opacity="0.82"/><rect x="548" y="118" width="110" height="78" rx="18" fill="#FFFFFF" opacity="0.88"/><path d="M572 157 H635" stroke="#2F727B" stroke-width="10" stroke-linecap="round" opacity="0.6"/><circle cx="248" cy="314" r="25" fill="#5AA0A8" opacity="0.72"/><circle cx="303" cy="335" r="20" fill="#5AA0A8" opacity="0.55"/>
  <rect x="565" y="334" width="148" height="50" rx="25" fill="#FFFFFF" opacity="0.82"/>
  <text x="639" y="368" text-anchor="middle" font-family="system-ui, sans-serif" font-size="30" font-weight="700" fill="#2F727B" opacity="0.92">傳染病</text>
</svg>
