<svg xmlns="http://www.w3.org/2000/svg" viewBox="0 0 800 450" fill="none">
  <rect width="800" height="450" rx="8" fill="#F2F6ED"/>
  <circle cx="650" cy="70" r="150" fill="#82A965" opacity="0.16"/>
  <circle cx="126" cy="380" r="130" fill="#FFFFFF" opacity="0.42"/>
  <path d="M80 350 C190 300 260 386 370 330 S570 282 720 335" stroke="#82A965" stroke-width="18" stroke-linecap="round" opacity="0.18"/>
  <path d="M346 126 C286 126 250 168 250 222 C250 277 290 315 348 315 H455 C518 315 558 273 558 218 C558 163 517 128 462 136 C442 108 391 103 346 126Z" fill="#82A965" opacity="0.86"/><path d="M345 143 V310 M405 121 V315 M466 138 V311 M262 224 H551 M288 175 C337 198 375 198 424 174 M301 271 C359 247 443 248 508 270" stroke="#FFFFFF" stroke-width="10" stroke-linecap="round" opacity="0.66"/><ellipse cx="512" cy="333" rx="95" ry="35" fill="#FFFFFF" opacity="0.9"/><circle cx="483" cy="319" r="21" fill="#E6A14A" opacity="0.95"/><path d="M518 318 C545 299 577 310 588 337 C558 351 531 346 518 318Z" fill="#6EA14D" opacity="0.9"/>
  <rect x="565" y="334" width="148" height="50" rx="25" fill="#FFFFFF" opacity="0.82"/>
  <text x="639" y="368" text-anchor="middle" font-family="system-ui, sans-serif" font-size="30" font-weight="700" fill="#466F35" opacity="0.92">腦健康</text>
</svg>
